<svg xmlns="http://www.w3.org/2000/svg" viewBox="0 0 800 450">
  <defs>
    <style>
      .light { fill: #f5f5f5; stroke: #555; stroke-width: 0.8; stroke-linejoin: round; }
      .medium { fill: #e8e8e8; stroke: #555; stroke-width: 0.8; stroke-linejoin: round; }
      .dark { fill: #ddd; stroke: #555; stroke-width: 0.8; stroke-linejoin: round; }
      .line { fill: none; stroke: #555; stroke-width: 0.8; stroke-linejoin: round; }
    </style>
  </defs>

  <!-- Base Platform -->
  <path class="dark" d="M 132 280 L 360 412 L 668 234 L 440 102 Z" />
  <path class="medium" d="M 132 268 L 360 400 L 668 222 L 440 90 Z" />
  <path class="light" d="M 132 268 L 360 400 L 668 222 L 440 90 Z" />
  <path class="dark" d="M 132 268 L 132 280 C 132 285 135 288 140 291 L 350 412 C 355 415 360 415 365 412 L 660 241 C 665 238 668 235 668 230 L 668 222 L 660 226 C 655 229 650 229 645 226 L 140 279 C 135 276 132 273 132 268 Z" />
  <path class="medium" d="M 132 268 L 132 280 C 132 285 135 288 140 291 L 360 418 L 360 400 L 140 273 C 135 270 132 267 132 262 Z" />
  <path class="dark" d="M 360 418 L 668 240 L 668 222 L 360 400 Z" />
  <path class="light" d="M 140 268 L 360 395 L 660 222 L 440 95 Z" />
  <path class="line" d="M 132 268 C 132 273 135 276 140 279 L 350 400 C 355 403 360 403 365 400 L 660 230 C 665 227 668 224 668 219" />
  <path class="line" d="M 132 280 C 132 285 135 288 140 291 L 350 412 C 355 415 360 415 365 412 L 660 241 C 665 238 668 235 668 230" />

  <!-- Main Building -->
  <g transform="translate(290, 35)">
    <!-- Base -->
    <path class="dark" d="M 0 175 L 50 204 L 130 158 L 80 129 Z" />
    <path class="medium" d="M 0 170 L 50 199 L 130 153 L 80 124 Z" />
    <path class="light" d="M 0 170 L 50 199 L 130 153 L 80 124 Z" />
    <path class="dark" d="M 0 170 L 0 175 L 50 204 L 50 199 Z" />
    <path class="medium" d="M 50 199 L 50 204 L 130 158 L 130 153 Z" />
    
    <!-- Main Structure -->
    <path class="light" d="M 5 167 L 5 45 L 45 22 L 45 144 Z" />
    <path class="medium" d="M 45 144 L 45 22 L 125 68 L 125 190 Z" />
    <path class="light" d="M 5 45 L 45 22 L 125 68 L 85 91 Z" />
    
    <!-- Roof Details -->
    <path class="dark" d="M 10 42 L 45 22 L 120 65 L 85 85 Z" />
    <path class="light" d="M 10 42 L 45 22 L 120 65 L 85 85 Z" />
    <path class="line" d="M 15 45 L 45 28 L 115 68 L 85 85 Z" />
    
    <!-- Roof Box 1 -->
    <path class="light" d="M 68 35 L 85 25 L 102 35 L 85 45 Z" />
    <path class="medium" d="M 68 35 L 68 40 L 85 50 L 85 45 Z" />
    <path class="dark" d="M 85 45 L 85 50 L 102 40 L 102 35 Z" />
    
    <!-- Roof Box 2 -->
    <path class="light" d="M 35 55 L 45 49 L 55 55 L 45 61 Z" />
    <path class="medium" d="M 35 55 L 35 60 L 45 66 L 45 61 Z" />
    <path class="dark" d="M 45 61 L 45 66 L 55 60 L 55 55 Z" />
    
    <!-- Roof Box 3 -->
    <path class="light" d="M 45 61 L 55 55 L 65 61 L 55 67 Z" />
    <path class="medium" d="M 45 61 L 45 66 L 55 72 L 55 67 Z" />
    <path class="dark" d="M 55 67 L 55 72 L 65 66 L 65 61 Z" />

    <!-- Left Facade Windows -->
    <g class="dark">
      <path d="M 12 60 L 18 56 L 18 66 L 12 70 Z" />
      <path d="M 20 55 L 26 51 L 26 61 L 20 65 Z" />
      <path d="M 28 50 L 34 46 L 34 56 L 28 60 Z" />
      <path d="M 36 45 L 42 41 L 42 51 L 36 55 Z" />
      
      <path d="M 12 75 L 18 71 L 18 81 L 12 85 Z" />
      <path d="M 20 70 L 26 66 L 26 76 L 20 80 Z" />
      <path d="M 28 65 L 34 61 L 34 71 L 28 75 Z" />
      <path d="M 36 60 L 42 56 L 42 66 L 36 70 Z" />
      
      <path d="M 12 90 L 18 86 L 18 96 L 12 100 Z" />
      <path d="M 20 85 L 26 81 L 26 91 L 20 95 Z" />
      <path d="M 28 80 L 34 76 L 34 86 L 28 90 Z" />
      <path d="M 36 75 L 42 71 L 42 81 L 36 85 Z" />
      
      <path d="M 12 105 L 18 101 L 18 111 L 12 115 Z" />
      <path d="M 20 100 L 26 96 L 26 106 L 20 110 Z" />
      <path d="M 28 95 L 34 91 L 34 101 L 28 105 Z" />
      <path d="M 36 90 L 42 86 L 42 96 L 36 100 Z" />
      
      <path d="M 12 120 L 18 116 L 18 126 L 12 130 Z" />
      <path d="M 20 115 L 26 111 L 26 121 L 20 125 Z" />
      <path d="M 28 110 L 34 106 L 34 116 L 28 120 Z" />
      <path d="M 36 105 L 42 101 L 42 111 L 36 115 Z" />
    </g>

    <!-- Right Facade Windows -->
    <g class="dark">
      <path d="M 52 75 L 118 113 L 118 123 L 52 85 Z" />
      <path d="M 52 95 L 118 133 L 118 143 L 52 105 Z" />
      <path d="M 52 115 L 118 153 L 118 163 L 52 125 Z" />
      <path d="M 52 135 L 118 173 L 118 183 L 52 145 Z" />
    </g>
    <g class="light">
      <path d="M 52 75 L 118 113 L 118 115 L 52 77 Z" />
      <path d="M 52 95 L 118 133 L 118 135 L 52 97 Z" />
      <path d="M 52 115 L 118 153 L 118 155 L 52 117 Z" />
      <path d="M 52 135 L 118 173 L 118 175 L 52 137 Z" />
    </g>

    <!-- Left Door -->
    <path class="dark" d="M 20 145 L 34 137 L 34 157 L 20 165 Z" />
    <path class="light" d="M 22 146 L 26 144 L 26 160 L 22 162 Z" />
    <path class="light" d="M 28 143 L 32 141 L 32 157 L 28 159 Z" />

    <!-- Right Door/Entrance -->
    <path class="light" d="M 75 155 L 100 170 L 100 185 L 75 170 Z" />
    <path class="dark" d="M 78 159 L 85 163 L 85 175 L 78 171 Z" />
    <path class="dark" d="M 88 165 L 95 169 L 95 181 L 88 177 Z" />
    <!-- Entrance Canopy -->
    <path class="light" d="M 73 152 L 102 169 L 98 171 L 69 154 Z" />
    <path class="medium" d="M 73 152 L 73 155 L 102 172 L 102 169 Z" />
    <path class="dark" d="M 69 154 L 69 157 L 98 174 L 98 171 Z" />
  </g>

  <!-- Server Rack Large (Left) -->
  <g transform="translate(200, 145)">
    <path class="light" d="M 45 0 L 88 25 L 88 135 L 45 110 Z" />
    <path class="medium" d="M 88 25 L 130 0 L 130 110 L 88 135 Z" />
    <path class="light" d="M 45 0 L 88 25 L 130 0 L 88 -25 Z" />
    
    <!-- Inner Rack Frame -->
    <path class="dark" d="M 50 8 L 85 28 L 85 130 L 50 110 Z" />
    <path class="light" d="M 50 8 L 85 28 L 85 130 L 50 110 Z" />
    
    <!-- Server Units Left -->
    <g class="dark">
      <path d="M 52 12 L 83 30 L 83 34 L 52 16 Z" />
      <path d="M 52 18 L 83 36 L 83 40 L 52 22 Z" />
      <path d="M 52 24 L 83 42 L 83 46 L 52 28 Z" />
      <path d="M 52 30 L 83 48 L 83 52 L 52 34 Z" />
      <path d="M 52 36 L 83 54 L 83 58 L 52 40 Z" />
      <path d="M 52 42 L 83 60 L 83 64 L 52 46 Z" />
      <path d="M 52 48 L 83 66 L 83 70 L 52 52 Z" />
      <path d="M 52 54 L 83 72 L 83 76 L 52 58 Z" />
      <path d="M 52 60 L 83 78 L 83 82 L 52 64 Z" />
      <path d="M 52 66 L 83 84 L 83 88 L 52 70 Z" />
      <path d="M 52 72 L 83 90 L 83 94 L 52 76 Z" />
      <path d="M 52 78 L 83 96 L 83 100 L 52 82 Z" />
      <path d="M 52 84 L 83 102 L 83 106 L 52 88 Z" />
      <path d="M 52 90 L 83 108 L 83 112 L 52 94 Z" />
      <path d="M 52 96 L 83 114 L 83 118 L 52 100 Z" />
      <path d="M 52 102 L 83 120 L 83 124 L 52 106 Z" />
    </g>
    
    <!-- Inner Rack Frame Right -->
    <path class="dark" d="M 92 28 L 125 8 L 125 110 L 92 130 Z" />
    <path class="medium" d="M 92 28 L 125 8 L 125 110 L 92 130 Z" />
    
    <!-- Server Units Right -->
    <g class="dark">
      <path d="M 94 30 L 123 13 L 123 17 L 94 34 Z" />
      <path d="M 94 36 L 123 19 L 123 23 L 94 40 Z" />
      <path d="M 94 42 L 123 25 L 123 29 L 94 46 Z" />
      <path d="M 94 48 L 123 31 L 123 35 L 94 52 Z" />
      <path d="M 94 54 L 123 37 L 123 41 L 94 58 Z" />
      <path d="M 94 60 L 123 43 L 123 47 L 94 64 Z" />
      <path d="M 94 66 L 123 49 L 123 53 L 94 70 Z" />
      <path d="M 94 72 L 123 55 L 123 59 L 94 76 Z" />
      <path d="M 94 78 L 123 61 L 123 65 L 94 82 Z" />
      <path d="M 94 84 L 123 67 L 123 71 L 94 88 Z" />
      <path d="M 94 90 L 123 73 L 123 77 L 94 94 Z" />
      <path d="M 94 96 L 123 79 L 123 83 L 94 100 Z" />
      <path d="M 94 102 L 123 85 L 123 89 L 94 106 Z" />
      <path d="M 94 108 L 123 91 L 123 95 L 94 112 Z" />
      <path d="M 94 114 L 123 97 L 123 101 L 94 118 Z" />
      <path d="M 94 120 L 123 103 L 123 107 L 94 124 Z" />
    </g>

    <!-- Details on Right Servers -->
    <g class="light">
      <circle cx="98" cy="32" r="1" />
      <circle cx="98" cy="38" r="1" />
      <circle cx="98" cy="44" r="1" />
      <circle cx="98" cy="50" r="1" />
      <circle cx="98" cy="56" r="1" />
      <circle cx="98" cy="62" r="1" />
      <circle cx="98" cy="68" r="1" />
      <circle cx="98" cy="74" r="1" />
      <circle cx="98" cy="80" r="1" />
      <circle cx="98" cy="86" r="1" />
      <circle cx="98" cy="92" r="1" />
      <circle cx="98" cy="98" r="1" />
      <circle cx="98" cy="104" r="1" />
      <circle cx="98" cy="110" r="1" />
      <circle cx="98" cy="116" r="1" />
      <circle cx="98" cy="122" r="1" />
      
      <line x1="102" y1="29" x2="108" y2="25" />
      <line x1="102" y1="35" x2="108" y2="31" />
      <line x1="102" y1="41" x2="108" y2="37" />
      <line x1="102" y1="47" x2="108" y2="43" />
      <line x1="102" y1="53" x2="108" y2="49" />
      <line x1="102" y1="59" x2="108" y2="55" />
      <line x1="102" y1="65" x2="108" y2="61" />
      <line x1="102" y1="71" x2="108" y2="67" />
      <line x1="102" y1="77" x2="108" y2="73" />
      <line x1="102" y1="83" x2="108" y2="79" />
      <line x1="102" y1="89" x2="108" y2="85" />
      <line x1="102" y1="95" x2="108" y2="91" />
      <line x1="102" y1="101" x2="108" y2="97" />
      <line x1="102" y1="107" x2="108" y2="103" />
      <line x1="102" y1="113" x2="108" y2="109" />
      <line x1="102" y1="119" x2="108" y2="115" />
    </g>

    <!-- Center Divider / Handle -->
    <path class="light" d="M 85 28 L 92 28 L 92 130 L 85 130 Z" />
    <path class="medium" d="M 85 75 L 92 75 L 92 105 L 85 105 Z" />
    <circle class="dark" cx="88.5" cy="80" r="2" />
    <path class="dark" d="M 87 85 L 90 85 L 90 100 L 87 100 Z" />
  </g>

  <!-- Small Building (Back Right) -->
  <g transform="translate(420, 80)">
    <path class="light" d="M 0 45 L 35 25 L 35 85 L 0 105 Z" />
    <path class="medium" d="M 35 85 L 35 25 L 45 19 L 45 79 Z" />
    <path class="light" d="M 0 45 L 35 25 L 45 19 L 10 39 Z" />
    
    <!-- Windows -->
    <g class="dark">
      <path d="M 5 50 L 10 47 L 10 55 L 5 58 Z" />
      <path d="M 12 46 L 17 43 L 17 51 L 12 54 Z" />
      <path d="M 19 42 L 24 39 L 24 47 L 19 50 Z" />
      <path d="M 26 38 L 31 35 L 31 43 L 26 46 Z" />
      
      <path d="M 5 60 L 10 57 L 10 65 L 5 68 Z" />
      <path d="M 12 56 L 17 53 L 17 61 L 12 64 Z" />
      <path d="M 19 52 L 24 49 L 24 57 L 19 60 Z" />
      <path d="M 26 48 L 31 45 L 31 53 L 26 56 Z" />
      
      <path d="M 5 70 L 10 67 L 10 75 L 5 78 Z" />
      <path d="M 12 66 L 17 63 L 17 71 L 12 74 Z" />
      <path d="M 19 62 L 24 59 L 24 67 L 19 70 Z" />
      <path d="M 26 58 L 31 55 L 31 63 L 26 66 Z" />
      
      <path d="M 5 80 L 10 77 L 10 85 L 5 88 Z" />
      <path d="M 12 76 L 17 73 L 17 81 L 12 84 Z" />
      <path d="M 19 72 L 24 69 L 24 77 L 19 80 Z" />
      <path d="M 26 68 L 31 65 L 31 73 L 26 76 Z" />
      
      <path d="M 5 90 L 10 87 L 10 95 L 5 98 Z" />
      <path d="M 12 86 L 17 83 L 17 91 L 12 94 Z" />
    </g>
  </g>

  <!-- Small Server Rack (Front of Small Building) -->
  <g transform="translate(440, 120)">
    <path class="light" d="M 0 20 L 15 11 L 15 51 L 0 60 Z" />
    <path class="medium" d="M 15 51 L 15 11 L 35 0 L 35 40 Z" />
    <path class="light" d="M 0 20 L 15 11 L 35 0 L 20 9 Z" />
    
    <!-- Top Details -->
    <path class="dark" d="M 5 16 L 12 12 L 18 15 L 11 19 Z" />
    <path class="dark" d="M 15 10 L 22 6 L 28 9 L 21 13 Z" />
    
    <!-- Front Details -->
    <g class="dark">
      <path d="M 18 20 L 22 18 L 22 24 L 18 26 Z" />
      <path d="M 24 17 L 28 15 L 28 21 L 24 23 Z" />
      <path d="M 30 14 L 34 12 L 34 18 L 30 20 Z" />
      
      <path d="M 18 28 L 22 26 L 22 32 L 18 34 Z" />
      <path d="M 24 25 L 28 23 L 28 29 L 24 31 Z" />
      <path d="M 30 22 L 34 20 L 34 26 L 30 28 Z" />
      
      <path d="M 18 36 L 22 34 L 22 40 L 18 42 Z" />
      <path d="M 24 33 L 28 31 L 28 37 L 24 39 Z" />
      <path d="M 30 30 L 34 28 L 34 34 L 30 32 Z" />
    </g>
  </g>

  <!-- Tall Thin Server Rack (Right) -->
  <g transform="translate(500, 100)">
    <path class="light" d="M 0 20 L 10 14 L 10 64 L 0 70 Z" />
    <path class="medium" d="M 10 64 L 10 14 L 25 5 L 25 55 Z" />
    <path class="light" d="M 0 20 L 10 14 L 25 5 L 15 11 Z" />
    
    <!-- Front Details -->
    <g class="dark">
      <path d="M 12 18 L 15 16 L 15 20 L 12 22 Z" />
      <path d="M 17 15 L 20 13 L 20 17 L 17 19 Z" />
      <path d="M 22 12 L 25 10 L 25 14 L 22 16 Z" />
      
      <path d="M 12 24 L 15 22 L 15 26 L 12 28 Z" />
      <path d="M 17 21 L 20 19 L 20 23 L 17 25 Z" />
      <path d="M 22 18 L 25 16 L 25 20 L 22 22 Z" />
      
      <path d="M 12 30 L 15 28 L 15 32 L 12 34 Z" />
      <path d="M 17 27 L 20 25 L 20 29 L 17 31 Z" />
      <path d="M 22 24 L 25 22 L 25 26 L 22 28 Z" />
      
      <path d="M 12 36 L 15 34 L 15 38 L 12 40 Z" />
      <path d="M 17 33 L 20 31 L 20 35 L 17 37 Z" />
      <path d="M 22 30 L 25 28 L 25 32 L 22 34 Z" />
      
      <path d="M 12 42 L 15 40 L 15 44 L 12 46 Z" />
      <path d="M 17 39 L 20 37 L 20 41 L 17 43 Z" />
      <path d="M 22 36 L 25 34 L 25 38 L 22 40 Z" />
      
      <path d="M 12 48 L 15 46 L 15 50 L 12 52 Z" />
      <path d="M 17 45 L 20 43 L 20 47 L 17 49 Z" />
      <path d="M 22 42 L 25 40 L 25 44 L 22 46 Z" />
    </g>
  </g>

  <!-- Medium Server Rack (Center Right) -->
  <g transform="translate(475, 170)">
    <path class="light" d="M 0 25 L 25 10 L 25 60 L 0 75 Z" />
    <path class="medium" d="M 25 60 L 25 10 L 50 25 L 50 75 Z" />
    <path class="light" d="M 0 25 L 25 10 L 50 25 L 25 40 Z" />
    
    <!-- Top Detail -->
    <path class="dark" d="M 15 25 L 25 19 L 35 25 L 25 31 Z" />
    <path class="light" d="M 18 25 L 25 21 L 32 25 L 25 29 Z" />
    
    <!-- Front Details -->
    <path class="dark" d="M 28 32 L 46 43 L 46 70 L 28 59 Z" />
    <path class="light" d="M 28 32 L 46 43 L 46 70 L 28 59 Z" />
    
    <g class="dark">
      <path d="M 30 36 L 44 44 L 44 46 L 30 38 Z" />
      <path d="M 30 40 L 44 48 L 44 50 L 30 42 Z" />
      <path d="M 30 44 L 44 52 L 44 54 L 30 46 Z" />
      <path d="M 30 48 L 44 56 L 44 58 L 30 50 Z" />
      <path d="M 30 52 L 44 60 L 44 62 L 30 54 Z" />
      <path d="M 30 56 L 44 64 L 44 66 L 30 58 Z" />
    </g>
    
    <!-- Side Detail -->
    <path class="dark" d="M 5 45 L 10 42 L 10 48 L 5 51 Z" />
  </g>

  <!-- Machine 1 (Center) -->
  <g transform="translate(415, 195)">
    <path class="light" d="M 0 30 L 30 12 L 30 72 L 0 90 Z" />
    <path class="medium" d="M 30 72 L 30 12 L 55 27 L 55 87 Z" />
    <path class="light" d="M 0 30 L 30 12 L 55 27 L 25 45 Z" />
    
    <!-- Top Detail -->
    <path class="dark" d="M 10 28 L 30 16 L 45 25 L 25 37 Z" />
    <path class="light" d="M 12 28 L 30 18 L 43 25 L 25 35 Z" />
    
    <!-- Front Details -->
    <path class="dark" d="M 33 35 L 52 46 L 52 82 L 33 71 Z" />
    <path class="light" d="M 33 35 L 52 46 L 52 82 L 33 71 Z" />
    
    <!-- Screen/Panel -->
    <path class="dark" d="M 35 38 L 45 44 L 45 60 L 35 54 Z" />
    <path class="light" d="M 36 39 L 44 44 L 44 59 L 36 54 Z" />
    
    <!-- Buttons/Slots -->
    <path class="dark" d="M 48 46 L 50 47 L 50 55 L 48 54 Z" />
    <path class="dark" d="M 35 60 L 40 63 L 40 68 L 35 65 Z" />
    <path class="dark" d="M 42 64 L 50 69 L 50 75 L 42 70 Z" />
    
    <!-- Side Details -->
    <line class="dark" x1="8" y1="50" x2="18" y2="44" />
    <line class="dark" x1="8" y1="55" x2="18" y2="49" />
    <line class="dark" x1="8" y1="60" x2="18" y2="54" />
  </g>

  <!-- Machine 2 (Front Center) -->
  <g transform="translate(355, 235)">
    <!-- Base -->
    <path class="light" d="M 0 45 L 20 33 L 20 63 L 0 75 Z" />
    <path class="medium" d="M 20 63 L 20 33 L 40 45 L 40 75 Z" />
    <path class="light" d="M 0 45 L 20 33 L 40 45 L 20 57 Z" />
    <path class="dark" d="M 0 65 L 20 53 L 40 65 L 20 77 Z" />
    <path class="light" d="M 0 65 L 20 53 L 20 83 L 0 95 Z" />
    <path class="medium" d="M 20 83 L 20 53 L 40 65 L 40 95 Z" />
    
    <!-- Top Part -->
    <path class="light" d="M 3 40 L 20 30 L 20 55 L 3 65 Z" />
    <path class="medium" d="M 20 55 L 20 30 L 37 40 L 37 65 Z" />
    <path class="light" d="M 3 40 L 20 30 L 37 40 L 20 50 Z" />
    
    <!-- Top Detail -->
    <path class="dark" d="M 10 38 L 20 32 L 30 38 L 20 44 Z" />
    <path class="light" d="M 12 38 L 20 34 L 28 38 L 20 42 Z" />
    
    <!-- Front Detail -->
    <path class="dark" d="M 23 44 L 34 50 L 34 60 L 23 54 Z" />
    <path class="light" d="M 23 44 L 34 50 L 34 60 L 23 54 Z" />
    <circle class="dark" cx="28.5" cy="52" r="3" />
    <circle class="light" cx="28.5" cy="52" r="1.5" />
    
    <!-- Base Details -->
    <path class="dark" d="M 23 75 L 25 76 L 25 82 L 23 81 Z" />
    <path class="dark" d="M 27 77 L 29 78 L 29 84 L 27 83 Z" />
    <circle class="dark" cx="34" cy="82" r="1" />
    <circle class="dark" cx="37" cy="84" r="1" />
  </g>

  <!-- Small Terminal (Front Left) -->
  <g transform="translate(308, 265)">
    <!-- Base -->
    <path class="light" d="M 0 45 L 15 36 L 15 66 L 0 75 Z" />
    <path class="medium" d="M 15 66 L 15 36 L 30 45 L 30 75 Z" />
    <path class="light" d="M 0 45 L 15 36 L 30 45 L 15 54 Z" />
    <path class="dark" d="M 0 60 L 15 51 L 30 60 L 15 69 Z" />
    <path class="light" d="M 0 60 L 15 51 L 15 71 L 0 80 Z" />
    <path class="medium" d="M 15 71 L 15 51 L 30 60 L 30 80 Z" />
    
    <!-- Top Part -->
    <path class="light" d="M 2 40 L 15 32 L 15 52 L 2 60 Z" />
    <path class="medium" d="M 15 52 L 15 32 L 28 40 L 28 60 Z" />
    <path class="light" d="M 2 40 L 15 32 L 28 40 L 15 48 Z" />
    
    <!-- Screen -->
    <path class="dark" d="M 17 42 L 26 47 L 26 55 L 17 50 Z" />
    <path class="light" d="M 17 42 L 26 47 L 26 55 L 17 50 Z" />
    <line class="dark" x1="19" y1="45" x2="24" y2="48" />
    <line class="dark" x1="19" y1="47" x2="24" y2="50" />
    <line class="dark" x1="19" y1="49" x2="24" y2="52" />
    
    <!-- Base Details -->
    <path class="dark" d="M 17 65 L 19 66 L 19 72 L 17 71 Z" />
    <path class="dark" d="M 21 67 L 23 68 L 23 74 L 21 73 Z" />
    <circle class="dark" cx="27" cy="72" r="1" />
  </g>

  <!-- Monitor and Keyboard (Right) -->
  <g transform="translate(535, 135)">
    <!-- Monitor Base -->
    <path class="light" d="M 15 60 L 25 54 L 35 60 L 25 66 Z" />
    <path class="medium" d="M 25 66 L 35 60 L 35 62 L 25 68 Z" />
    <path class="dark" d="M 15 60 L 25 66 L 25 68 L 15 62 Z" />
    
    <!-- Monitor Stand -->
    <path class="light" d="M 23 50 L 27 48 L 27 60 L 23 62 Z" />
    <path class="medium" d="M 27 60 L 27 48 L 29 49 L 29 61 Z" />
    
    <!-- Monitor Screen -->
    <path class="light" d="M 0 25 L 35 5 L 35 40 L 0 60 Z" />
    <path class="medium" d="M 35 40 L 35 5 L 40 8 L 40 43 Z" />
    <path class="light" d="M 0 25 L 35 5 L 40 8 L 5 28 Z" />
    
    <!-- Inner Screen -->
    <path class="dark" d="M 3 26 L 33 9 L 33 38 L 3 55 Z" />
    <path class="light" d="M 4 27 L 32 11 L 32 37 L 4 53 Z" />
    
    <!-- Keyboard -->
    <g transform="translate(15, 65)">
      <path class="light" d="M 0 10 L 25 -5 L 45 7 L 20 22 Z" />
      <path class="medium" d="M 20 22 L 45 7 L 45 9 L 20 24 Z" />
      <path class="dark" d="M 0 10 L 20 22 L 20 24 L 0 12 Z" />
      
      <!-- Keys -->
      <path class="dark" d="M 5 10 L 25 -2 L 40 7 L 20 19 Z" />
      <path class="light" d="M 5 10 L 25 -2 L 40 7 L 20 19 Z" />
      
      <!-- Key lines -->
      <line class="dark" x1="7" y1="9" x2="22" y2="18" />
      <line class="dark" x1="9" y1="8" x2="24" y2="17" />
      <line class="dark" x1="11" y1="7" x2="26" y2="16" />
      <line class="dark" x1="13" y1="6" x2="28" y2="15" />
      <line class="dark" x1="15" y1="5" x2="30" y2="14" />
      <line class="dark" x1="17" y1="4" x2="32" y2="13" />
      <line class="dark" x1="19" y1="3" x2="34" y2="12" />
      <line class="dark" x1="21" y1="2" x2="36" y2="11" />
      <line class="dark" x1="23" y1="1" x2="38" y2="10" />
      
      <line class="dark" x1="8" y1="7" x2="23" y2="-2" />
      <line class="dark" x1="11" y1="9" x2="26" y2="0" />
      <line class="dark" x1="14" y1="11" x2="29" y2="2" />
      <line class="dark" x1="17" y1="13" x2="32" y2="4" />
      <line class="dark" x1="20" y1="15" x2="35" y2="6" />
    </g>
  </g>

</svg>