<svg xmlns="http://www.w3.org/2000/svg" viewBox="0 0 800 450" width="100%" height="100%">
  <rect width="100%" height="100%" fill="#f5f5f5"/>

  <!-- Window 1: Bar Chart -->
  <g transform="translate(65, 60)">
    <rect width="200" height="175" rx="4" fill="#ffffff" stroke="#888" stroke-width="0.8"/>
    <path d="M 0 4 C 0 1.79 1.79 0 4 0 L 196 0 C 198.21 0 200 1.79 200 4 L 200 25 L 0 25 Z" fill="#e8e8e8" stroke="#888" stroke-width="0.8"/>
    <circle cx="15" cy="12.5" r="3.5" fill="none" stroke="#888" stroke-width="0.8"/>
    <circle cx="28" cy="12.5" r="3.5" fill="none" stroke="#888" stroke-width="0.8"/>
    <circle cx="41" cy="12.5" r="3.5" fill="none" stroke="#888" stroke-width="0.8"/>
    
    <path d="M 30 140 L 30 45" fill="none" stroke="#888" stroke-width="0.8"/>
    <path d="M 30 140 L 180 140" fill="none" stroke="#888" stroke-width="0.8"/>
    <path d="M 27 140 L 30 140 M 27 121 L 30 121 M 27 102 L 30 102 M 27 83 L 30 83 M 27 64 L 30 64 M 27 45 L 30 45" fill="none" stroke="#888" stroke-width="0.8"/>
    
    <rect x="38" y="110" width="14" height="30" fill="#FF6F47"/>
    <rect x="62" y="95" width="14" height="45" fill="#FF6F47"/>
    <rect x="86" y="85" width="14" height="55" fill="#FF6F47"/>
    <rect x="110" y="70" width="14" height="70" fill="#FF6F47"/>
    <rect x="134" y="45" width="14" height="95" fill="#FF6F47"/>
  </g>

  <!-- Window 2: Node Graph -->
  <g transform="translate(385, 90)">
    <rect width="200" height="175" rx="4" fill="#ffffff" stroke="#888" stroke-width="0.8"/>
    <path d="M 0 4 C 0 1.79 1.79 0 4 0 L 196 0 C 198.21 0 200 1.79 200 4 L 200 25 L 0 25 Z" fill="#e8e8e8" stroke="#888" stroke-width="0.8"/>
    <circle cx="15" cy="12.5" r="3.5" fill="none" stroke="#888" stroke-width="0.8"/>
    <circle cx="28" cy="12.5" r="3.5" fill="none" stroke="#888" stroke-width="0.8"/>
    <circle cx="41" cy="12.5" r="3.5" fill="none" stroke="#888" stroke-width="0.8"/>
    
    <g stroke="#888" stroke-width="0.5">
      <line x1="90" y1="55" x2="55" y2="105"/>
      <line x1="90" y1="55" x2="95" y2="100"/>
      <line x1="90" y1="55" x2="125" y2="70"/>
      <line x1="55" y1="105" x2="95" y2="100"/>
      <line x1="55" y1="105" x2="70" y2="140"/>
      <line x1="95" y1="100" x2="70" y2="140"/>
      <line x1="95" y1="100" x2="110" y2="135"/>
      <line x1="95" y1="100" x2="120" y2="100"/>
      <line x1="125" y1="70" x2="120" y2="100"/>
      <line x1="120" y1="100" x2="140" y2="115"/>
      <line x1="120" y1="100" x2="110" y2="135"/>
      <line x1="110" y1="135" x2="125" y2="150"/>
      <line x1="140" y1="115" x2="125" y2="150"/>
    </g>
    
    <g fill="#FF6F47">
      <circle cx="90" cy="55" r="8" opacity="0.3"/>
      <circle cx="55" cy="105" r="8" opacity="0.3"/>
      <circle cx="95" cy="100" r="8" opacity="0.3"/>
      <circle cx="125" cy="70" r="6" opacity="0.3"/>
      <circle cx="120" cy="100" r="7" opacity="0.3"/>
      <circle cx="140" cy="115" r="8" opacity="0.3"/>
      <circle cx="70" cy="140" r="7" opacity="0.3"/>
      <circle cx="110" cy="135" r="7" opacity="0.3"/>
      <circle cx="125" cy="150" r="7" opacity="0.3"/>
      
      <circle cx="90" cy="55" r="3.5"/>
      <circle cx="55" cy="105" r="3.5"/>
      <circle cx="95" cy="100" r="3.5"/>
      <circle cx="125" cy="70" r="2.5"/>
      <circle cx="120" cy="100" r="3"/>
      <circle cx="140" cy="115" r="3.5"/>
      <circle cx="70" cy="140" r="3"/>
      <circle cx="110" cy="135" r="3"/>
      <circle cx="125" cy="150" r="3"/>
    </g>
  </g>

  <!-- Window 3: Data Table -->
  <g transform="translate(215, 180)">
    <rect width="210" height="170" rx="4" fill="#ffffff" stroke="#888" stroke-width="0.8"/>
    <path d="M 0 4 C 0 1.79 1.79 0 4 0 L 206 0 C 208.21 0 210 1.79 210 4 L 210 25 L 0 25 Z" fill="#e8e8e8" stroke="#888" stroke-width="0.8"/>
    <circle cx="15" cy="12.5" r="3.5" fill="none" stroke="#888" stroke-width="0.8"/>
    <circle cx="28" cy="12.5" r="3.5" fill="none" stroke="#888" stroke-width="0.8"/>
    <circle cx="41" cy="12.5" r="3.5" fill="none" stroke="#888" stroke-width="0.8"/>
    
    <rect x="20" y="35" width="170" height="115" fill="none" stroke="#888" stroke-width="0.8"/>
    <rect x="20" y="35" width="170" height="15" fill="#e8e8e8" stroke="none"/>
    
    <line x1="20" y1="50" x2="190" y2="50" stroke="#888" stroke-width="0.8"/>
    <line x1="20" y1="70" x2="190" y2="70" stroke="#888" stroke-width="0.8"/>
    <line x1="20" y1="90" x2="190" y2="90" stroke="#888" stroke-width="0.8"/>
    <line x1="20" y1="110" x2="190" y2="110" stroke="#888" stroke-width="0.8"/>
    <line x1="20" y1="130" x2="190" y2="130" stroke="#888" stroke-width="0.8"/>
    
    <line x1="40" y1="35" x2="40" y2="150" stroke="#888" stroke-width="0.8"/>
    <line x1="135" y1="35" x2="135" y2="150" stroke="#888" stroke-width="0.8"/>
    <line x1="160" y1="35" x2="160" y2="150" stroke="#888" stroke-width="0.8"/>
    
    <rect x="26" y="55" width="8" height="8" fill="none" stroke="#888" stroke-width="0.8"/>
    <rect x="26" y="75" width="8" height="8" fill="none" stroke="#888" stroke-width="0.8"/>
    <rect x="26" y="95" width="8" height="8" fill="none" stroke="#888" stroke-width="0.8"/>
    <rect x="26" y="115" width="8" height="8" fill="none" stroke="#888" stroke-width="0.8"/>
    <rect x="26" y="135" width="8" height="8" fill="none" stroke="#888" stroke-width="0.8"/>
    
    <path d="M 27 79 L 29 81 L 33 76" fill="none" stroke="#FF6F47" stroke-width="1.5" stroke-linecap="round" stroke-linejoin="round"/>
    <path d="M 27 99 L 29 101 L 33 96" fill="none" stroke="#FF6F47" stroke-width="1.5" stroke-linecap="round" stroke-linejoin="round"/>
    
    <line x1="47" y1="58" x2="90" y2="58" stroke="#888" stroke-width="1.5" stroke-linecap="round"/>
    <line x1="47" y1="64" x2="100" y2="64" stroke="#888" stroke-width="1" stroke-linecap="round" opacity="0.4"/>
    
    <line x1="47" y1="78" x2="85" y2="78" stroke="#888" stroke-width="1.5" stroke-linecap="round"/>
    <line x1="47" y1="84" x2="115" y2="84" stroke="#888" stroke-width="1" stroke-linecap="round" opacity="0.4"/>
    
    <line x1="47" y1="98" x2="75" y2="98" stroke="#888" stroke-width="1.5" stroke-linecap="round"/>
    <line x1="47" y1="104" x2="105" y2="104" stroke="#888" stroke-width="1" stroke-linecap="round" opacity="0.4"/>
    
    <line x1="47" y1="118" x2="80" y2="118" stroke="#888" stroke-width="1.5" stroke-linecap="round"/>
    <line x1="47" y1="124" x2="110" y2="124" stroke="#888" stroke-width="1" stroke-linecap="round" opacity="0.4"/>
    
    <line x1="47" y1="138" x2="95" y2="138" stroke="#888" stroke-width="1.5" stroke-linecap="round"/>
    <line x1="47" y1="144" x2="100" y2="144" stroke="#888" stroke-width="1" stroke-linecap="round" opacity="0.4"/>
  </g>

  <!-- Window 4: Chat Bubbles -->
  <g transform="translate(540, 215)">
    <rect width="200" height="160" rx="4" fill="#ffffff" stroke="#888" stroke-width="0.8"/>
    <path d="M 0 4 C 0 1.79 1.79 0 4 0 L 196 0 C 198.21 0 200 1.79 200 4 L 200 25 L 0 25 Z" fill="#e8e8e8" stroke="#888" stroke-width="0.8"/>
    <circle cx="15" cy="12.5" r="3.5" fill="none" stroke="#888" stroke-width="0.8"/>
    <circle cx="28" cy="12.5" r="3.5" fill="none" stroke="#888" stroke-width="0.8"/>
    <circle cx="41" cy="12.5" r="3.5" fill="none" stroke="#888" stroke-width="0.8"/>
    
    <path d="M 28 45 H 82 A 4 4 0 0 1 86 49 V 76 A 4 4 0 0 1 82 80 H 45 L 34 92 L 38 80 H 28 A 4 4 0 0 1 24 76 V 49 A 4 4 0 0 1 28 45 Z" fill="#FF6F47" stroke="#888" stroke-width="0.8" stroke-linejoin="round"/>
    <line x1="34" y1="56" x2="76" y2="56" stroke="#ffffff" stroke-width="2.5" stroke-linecap="round"/>
    <line x1="34" y1="68" x2="56" y2="68" stroke="#ffffff" stroke-width="2.5" stroke-linecap="round"/>
    
    <path d="M 94 52 H 155 A 4 4 0 0 1 159 56 V 83 A 4 4 0 0 1 155 87 H 148 L 152 99 L 142 87 H 94 A 4 4 0 0 1 90 83 V 56 A 4 4 0 0 1 94 52 Z" fill="#ffffff" stroke="#888" stroke-width="0.8" stroke-linejoin="round"/>
    <line x1="100" y1="63" x2="149" y2="63" stroke="#888" stroke-width="2.5" stroke-linecap="round"/>
    <line x1="100" y1="75" x2="129" y2="75" stroke="#888" stroke-width="2.5" stroke-linecap="round"/>
    
    <path d="M 110 97 H 171 A 4 4 0 0 1 175 101 V 128 A 4 4 0 0 1 171 132 H 164 L 168 144 L 158 132 H 110 A 4 4 0 0 1 106 128 V 101 A 4 4 0 0 1 110 97 Z" fill="#ffffff" stroke="#888" stroke-width="0.8" stroke-linejoin="round"/>
    <line x1="116" y1="108" x2="165" y2="108" stroke="#888" stroke-width="2.5" stroke-linecap="round"/>
    <line x1="116" y1="120" x2="145" y2="120" stroke="#888" stroke-width="2.5" stroke-linecap="round"/>
  </g>
</svg>