<svg width="106" height="24" viewBox="0 0 106 24" fill="none" xmlns="http://www.w3.org/2000/svg">
<path d="M0 12.7436C0.247259 5.86182 5.53586 0.261818 12.035 0C12.2685 0.00545455 12.4574 0.201818 12.4574 0.449091V6.15091C12.4574 6.38545 12.2891 6.58 12.0745 6.60545C9.00092 6.83455 6.45106 9.53454 6.23643 12.7891C6.21067 13.0164 6.02866 13.1909 5.80716 13.1909H0.389777C0.175142 13.1673 0.00515123 12.9764 0 12.7436Z" fill="#272727"></path>
<path d="M19.5248 11.1545C19.2775 18.0364 13.9889 23.6364 7.48978 23.8982C7.25626 23.8927 7.06738 23.6964 7.06738 23.4491V17.7473C7.06738 17.5127 7.23566 17.3182 7.45029 17.2927C10.5239 17.0636 13.0737 14.3636 13.2884 11.1091C13.3141 10.8818 13.4961 10.7073 13.7176 10.7073H19.135C19.3496 10.7309 19.5196 10.9218 19.5248 11.1545Z" fill="#272727"></path>
<path d="M34.2162 11.6599C33.8075 11.429 33.3439 11.2272 32.8254 11.1108C32.3343 10.9672 31.7882 10.8799 31.2439 10.7927C30.6979 10.7054 30.2343 10.6199 29.8256 10.4745C29.4702 10.3581 29.1714 10.2145 28.9808 10.0127C28.8177 9.86903 28.7353 9.63812 28.7353 9.37812C28.7353 9.14721 28.7902 8.82903 29.2813 8.56903C29.7174 8.33812 30.2635 8.22175 30.9177 8.22175C31.5719 8.22175 32.0904 8.36539 32.5815 8.62539C33.0451 8.91448 33.4538 9.25994 33.7818 9.69448L33.9037 9.87085C33.9535 9.94357 34.0548 9.95084 34.1132 9.88539L35.4542 8.38903C35.4971 8.34175 35.504 8.26903 35.4714 8.21266L35.3907 8.0763C34.9545 7.41266 34.3536 6.92175 33.6186 6.54539C32.882 6.19812 32.0097 6.02539 31.0001 6.02539C30.1811 6.02539 29.4461 6.16903 28.7627 6.42903C28.0811 6.68903 27.535 7.09266 27.1264 7.61266C26.6902 8.13266 26.4996 8.7963 26.4996 9.51812C26.4996 10.5872 26.9083 11.4236 27.6999 11.9727C28.4365 12.4927 29.4461 12.8672 30.6721 13.0418C31.5994 13.1854 32.336 13.3599 32.8545 13.5618C33.3731 13.7927 33.4538 14.1108 33.4538 14.3708C33.4538 14.6599 33.3714 14.8618 33.1533 15.0345C32.9352 15.2363 32.6348 15.409 32.2536 15.5254C31.8724 15.6418 31.462 15.6981 31.0533 15.6981C30.2892 15.6981 29.635 15.5254 29.1165 15.2363C28.5704 14.9181 28.0536 14.4563 27.5625 13.8508L27.4251 13.689C27.3685 13.6218 27.2689 13.6254 27.2174 13.6963L25.9708 15.3472C25.9296 15.4018 25.9313 15.4781 25.9742 15.5327L26.0635 15.6436C26.6902 16.4236 27.4269 17.0018 28.2459 17.3472C29.065 17.6945 29.9922 17.8672 31.0001 17.8672C31.9273 17.8672 32.7721 17.7236 33.4555 17.4054C34.1647 17.0872 34.7382 16.6545 35.1194 16.0763C35.528 15.4981 35.7186 14.8054 35.7186 14.0545C35.7186 13.4763 35.583 12.9854 35.31 12.5818C35.0095 12.2345 34.6558 11.9181 34.2196 11.6581L34.2162 11.6599Z" fill="#272727"></path>
<path d="M47.5391 6.66364C47.0206 6.34546 46.4213 6.17273 45.7654 6.17273H40.257C40.1814 6.17273 40.1196 6.23818 40.1196 6.31818V17.5818C40.1196 17.6618 40.1814 17.7273 40.257 17.7273H42.1921C42.2677 17.7273 42.3295 17.6618 42.3295 17.5818V13.6545H45.5748C46.229 13.6545 46.8557 13.4818 47.4292 13.1636C48.001 12.8455 48.4389 12.3836 48.7926 11.8055C49.1463 11.2273 49.3111 10.5636 49.3111 9.87091C49.3111 9.17818 49.148 8.54182 48.8201 7.99455C48.4921 7.44546 48.056 6.98364 47.5374 6.66546L47.5391 6.66364ZM45.4941 8.45455C45.7671 8.45455 46.0401 8.51273 46.2857 8.65637C46.5312 8.8 46.6943 8.94546 46.8574 9.17637C46.9931 9.37818 47.048 9.60909 47.048 9.86909C47.048 10.1582 46.9931 10.3891 46.8574 10.62C46.7218 10.8509 46.5312 11.0236 46.2857 11.1691C46.0401 11.3127 45.7946 11.3709 45.5216 11.3709H42.5562C42.4463 11.3709 42.3587 11.2764 42.3587 11.1618V8.66364C42.3587 8.54727 42.448 8.45455 42.5562 8.45455H45.4941Z" fill="#272727"></path>
<path d="M61.885 12.0928C62.3486 11.4583 62.5942 10.7074 62.5942 9.89827C62.5942 9.17645 62.431 8.51281 62.0756 7.96372C61.7476 7.41463 61.284 6.9819 60.7397 6.66372C60.1937 6.34554 59.5944 6.2019 58.966 6.2019H53.3752C53.2996 6.2019 53.2378 6.26736 53.2378 6.34736V17.611C53.2378 17.691 53.2996 17.7565 53.3752 17.7565H55.312C55.3876 17.7565 55.4494 17.691 55.4494 17.611V13.9219C55.4494 13.8055 55.5387 13.7128 55.6469 13.7128H57.9632C58.0284 13.7128 58.0903 13.7474 58.1263 13.8037L60.6453 17.6946C60.671 17.7328 60.7122 17.7564 60.7569 17.7583L63.1488 17.7837C63.2604 17.7837 63.3256 17.6528 63.2621 17.5564L60.4942 13.3383C61.0402 13.0201 61.5038 12.6164 61.885 12.0964V12.0928ZM58.5848 8.45463C58.911 8.45463 59.184 8.51281 59.4571 8.65645C59.7301 8.77281 59.9207 8.94554 60.0563 9.17645C60.192 9.37827 60.2744 9.63827 60.2744 9.89827C60.2744 10.1583 60.2194 10.3892 60.0838 10.6201C59.9481 10.851 59.7558 11.0237 59.5378 11.1692C59.2922 11.3128 59.0467 11.371 58.7462 11.371H55.6709C55.561 11.371 55.4734 11.2764 55.4734 11.1619V8.66372C55.4734 8.54736 55.5627 8.45463 55.6709 8.45463H58.5831H58.5848Z" fill="#272727"></path>
<path d="M67.3576 17.769H75.4845C75.5601 17.769 75.6219 17.7036 75.6219 17.6236V15.6308C75.6219 15.5508 75.5601 15.4854 75.4845 15.4854H69.6276C69.5177 15.4854 69.4301 15.3908 69.4301 15.2763V13.3945C69.4301 13.2781 69.5194 13.1854 69.6276 13.1854H74.6655C74.741 13.1854 74.8028 13.1199 74.8028 13.0399V11.0472C74.8028 10.9672 74.741 10.9017 74.6655 10.9017H69.6276C69.5177 10.9017 69.4301 10.8072 69.4301 10.6927V8.7072C69.4301 8.59084 69.5194 8.49811 69.6276 8.49811H75.4845C75.5601 8.49811 75.6219 8.43266 75.6219 8.35266V6.35993C75.6219 6.27993 75.5601 6.21448 75.4845 6.21448H67.3576C67.282 6.21448 67.2202 6.27993 67.2202 6.35993V17.6236C67.2202 17.7036 67.282 17.769 67.3576 17.769Z" fill="#272727"></path>
<path d="M83.9597 6.25829L79.1725 17.5219C79.1313 17.6183 79.1983 17.7256 79.2979 17.7256H81.3171C81.3704 17.7256 81.4202 17.6928 81.4408 17.6401L82.4659 15.2565C82.5002 15.1765 82.5758 15.1256 82.6582 15.1256H87.4042C87.4883 15.1256 87.5639 15.1783 87.5965 15.2583L88.5958 17.6383C88.6181 17.691 88.6662 17.7237 88.7212 17.7237H90.8486C90.9482 17.7237 91.0135 17.6165 90.974 17.5201L86.2142 6.25648C86.1919 6.20375 86.1438 6.17102 86.0889 6.17102H84.0834C84.0301 6.17102 83.9803 6.20375 83.958 6.25648L83.9597 6.25829ZM86.2572 12.8437H83.7829C83.6403 12.8437 83.5442 12.6874 83.6026 12.5492L84.8509 9.58193C84.9213 9.41466 85.1445 9.41648 85.2132 9.58193L86.4392 12.5492C86.4958 12.6874 86.4014 12.8437 86.2572 12.8437Z" fill="#272727"></path>
<path d="M104.968 9.75455C104.723 9.06182 104.369 8.42546 103.878 7.90546C103.387 7.35637 102.788 6.95273 102.077 6.63455C101.368 6.34546 100.523 6.17273 99.594 6.17273H94.6574C94.5818 6.17273 94.52 6.23818 94.52 6.31818V17.5818C94.52 17.6618 94.5818 17.7273 94.6574 17.7273H99.594C100.849 17.7273 101.886 17.4673 102.759 16.9473C103.603 16.4273 104.259 15.7055 104.695 14.8382C105.132 13.9709 105.35 12.9891 105.35 11.9509C105.322 11.2 105.214 10.4491 104.968 9.75637V9.75455ZM96.7041 8.66546C96.7041 8.54909 96.7934 8.45637 96.9016 8.45637H99.5133C100.358 8.45637 101.041 8.62909 101.558 8.94727C102.077 9.26546 102.431 9.69818 102.676 10.2182C102.922 10.7382 103.032 11.3436 103.032 11.98C103.032 12.6164 102.922 13.2218 102.676 13.7709C102.431 14.2909 102.077 14.6945 101.558 15.0127C101.04 15.3309 100.358 15.4745 99.5133 15.4745H96.9016C96.7917 15.4745 96.7041 15.38 96.7041 15.2655V8.66727V8.66546Z" fill="#272727"></path>
</svg>